<?xml version="1.0" encoding="UTF-8" standalone="no"?>
<svg
   xmlns:dc="http://purl.org/dc/elements/1.1/"
   xmlns:cc="http://creativecommons.org/ns#"
   xmlns:rdf="http://www.w3.org/1999/02/22-rdf-syntax-ns#"
   xmlns:svg="http://www.w3.org/2000/svg"
   xmlns="http://www.w3.org/2000/svg"
   xmlns:sodipodi="http://sodipodi.sourceforge.net/DTD/sodipodi-0.dtd"
   xmlns:inkscape="http://www.inkscape.org/namespaces/inkscape"
   version="1.1"
   id="svg2"
   xml:space="preserve"
   width="550.60004"
   height="127.06667"
   viewBox="0 0 550.60004 127.06667"
   sodipodi:docname="logo_horizontal.svg"
   inkscape:version="1.0.1 (3bc2e813f5, 2020-09-07)"><metadata
     id="metadata8"><rdf:RDF><cc:Work
         rdf:about=""><dc:format>image/svg+xml</dc:format><dc:type
           rdf:resource="http://purl.org/dc/dcmitype/StillImage" /><dc:title></dc:title></cc:Work></rdf:RDF></metadata><defs
     id="defs6"><clipPath
       clipPathUnits="userSpaceOnUse"
       id="clipPath22"><path
         d="M 0,95.3 H 377.7 V 0 H 0 Z"
         id="path20" /></clipPath><clipPath
       clipPathUnits="userSpaceOnUse"
       id="clipPath70"><path
         d="M 0,95.3 H 377.7 V 0 H 0 Z"
         id="path68" /></clipPath><clipPath
       clipPathUnits="userSpaceOnUse"
       id="clipPath154"><path
         d="M 0,95.3 H 377.7 V 0 H 0 Z"
         id="path152" /></clipPath></defs><sodipodi:namedview
     pagecolor="#ffffff"
     bordercolor="#666666"
     borderopacity="1"
     objecttolerance="10"
     gridtolerance="10"
     guidetolerance="10"
     inkscape:pageopacity="0"
     inkscape:pageshadow="2"
     inkscape:window-width="1851"
     inkscape:window-height="1016"
     id="namedview4"
     showgrid="false"
     inkscape:zoom="2.5675139"
     inkscape:cx="251.8"
     inkscape:cy="63.533337"
     inkscape:window-x="69"
     inkscape:window-y="27"
     inkscape:window-maximized="1"
     inkscape:current-layer="g10" /><g
     id="g10"
     inkscape:groupmode="layer"
     inkscape:label="logo_horizontal"
     transform="matrix(1.3333333,0,0,-1.3333333,0,127.06667)"><g
       id="g202"
       transform="translate(12.268036)"><g
         id="g12"
         transform="matrix(1.2387957,0,0,1.2387957,116.24483,31.454633)"><path
           d="M 0,0 -3.7,11.2 -7.5,0 Z m -7,19.5 h 6.6 L 11.1,-12.1 H 3.6 L 1.2,-5 h -9.8 l -2.4,-7.1 h -7.6 z"
           style="fill:#000000;fill-opacity:1;fill-rule:nonzero;stroke:none"
           id="path14" /></g><g
         id="g16"
         transform="matrix(1.2387957,0,0,1.2387957,-44.303219,-26.892397)"><g
           id="g18"
           clip-path="url(#clipPath22)"><g
             id="g24"
             transform="translate(151.1001,51.5002)"><path
               d="M 0,0 H 6.7 C 7.6,0 8.3,0.4 8.9,1.2 9.5,2 9.8,3.1 9.8,4.3 9.8,5.6 9.4,6.6 8.7,7.4 8,8.2 7.2,8.6 6.4,8.6 H -0.1 V 0 Z M -7.3,-16.5 V 15.1 H 6.9 c 1.5,0 2.9,-0.3 4.1,-0.9 1.3,-0.6 2.4,-1.4 3.3,-2.4 0.9,-1 1.6,-2.2 2.2,-3.4 0.5,-1.3 0.8,-2.6 0.8,-3.9 0,-1 -0.1,-1.9 -0.4,-2.8 -0.2,-0.9 -0.6,-1.8 -1,-2.6 -0.4,-0.8 -1,-1.5 -1.6,-2.2 -0.6,-0.6 -1.4,-1.2 -2.2,-1.6 L 19,-16.4 H 10.8 L 4.7,-6.2 h -4.8 v -10.2 h -7.2 z"
               style="fill:#000000;fill-opacity:1;fill-rule:nonzero;stroke:none"
               id="path26" /></g><g
             id="g28"
             transform="translate(173.6001,35.0002)"><path
               d="M 0,0 V 31.6 H 7.3 V 18 l 11.6,13.6 h 8.2 L 15.3,17.5 27.9,0 H 19.6 L 10.7,12.7 7.4,9.3 V 0 Z"
               style="fill:#000000;fill-opacity:1;fill-rule:nonzero;stroke:none"
               id="path30" /></g><g
             id="g32"
             transform="translate(219.4004,47.0998)"><path
               d="M 0,0 -3.7,11.2 -7.5,0 Z m -7,19.5 h 6.6 L 11.1,-12.1 H 3.6 L 1.199,-5 h -9.8 L -11,-12.1 h -7.5 z"
               style="fill:#000000;fill-opacity:1;fill-rule:nonzero;stroke:none"
               id="path34" /></g><g
             id="g36"
             transform="translate(235.5,66.5998)"><path
               d="M 0,0 7.4,-22.399 14.7,0 h 7.7 l -12,-31.6 H 4.3 L -7.8,0 Z"
               style="fill:#000000;fill-opacity:1;fill-rule:nonzero;stroke:none"
               id="path38" /></g><path
             d="m 260.9,66.6 h 7.3 V 35 h -7.3 z"
             style="fill:#000000;fill-opacity:1;fill-rule:nonzero;stroke:none"
             id="path40" /><g
             id="g42"
             transform="translate(294.4004,50.8)"><path
               d="M 0,0 C 0,1.4 -0.2,2.7 -0.601,3.8 -1,4.9 -1.5,5.9 -2.2,6.8 c -0.7,0.8 -1.601,1.5 -2.601,1.9 -1,0.4 -2.199,0.7 -3.5,0.7 h -4.5 V -9.4 h 4.5 c 1.301,0 2.5,0.2 3.601,0.7 1,0.5 1.899,1.1 2.599,2 0.701,0.8 1.201,1.8 1.601,3 C -0.2,-2.6 0,-1.4 0,0 m -20.101,-15.8 v 31.6 h 11.8 c 2.601,0 4.901,-0.4 6.901,-1.2 2,-0.8 3.599,-2 4.9,-3.4 1.3,-1.4 2.3,-3.1 3,-5 0.699,-1.9 1,-4 1,-6.1 0,-2.4 -0.4,-4.6 -1.101,-6.5 -0.7,-1.9 -1.799,-3.6 -3.2,-5 -1.399,-1.4 -3,-2.4 -5,-3.2 -2,-0.8 -4.099,-1.1 -6.5,-1.1 h -11.8 z"
               style="fill:#000000;fill-opacity:1;fill-rule:nonzero;stroke:none"
               id="path44" /></g><path
             d="m 306.1,66.6 h 7.301 V 35 H 306.1 Z"
             style="fill:#000000;fill-opacity:1;fill-rule:nonzero;stroke:none"
             id="path46" /><g
             id="g48"
             transform="translate(335.0996,47.0998)"><path
               d="M 0,0 -3.699,11.2 -7.5,0 Z m -7,19.5 h 6.601 l 11.5,-31.6 h -7.5 L 1.2,-5 h -9.8 l -2.4,-7.1 h -7.5 z"
               style="fill:#000000;fill-opacity:1;fill-rule:nonzero;stroke:none"
               id="path50" /></g></g></g><g
         id="g148"
         transform="translate(-17.796873,-0.08497332)"><g
           id="g150"
           clip-path="url(#clipPath154)"><g
             id="g156"
             transform="translate(79.3408,49.2746)"><path
               d="m 0,0 c -0.152,-1.319 -0.305,-2.589 -0.507,-3.704 -1.369,-8.577 -4.467,-12.281 -7.612,-15.072 -0.711,5.175 -2.993,11.368 -8.171,18.371 -1.471,1.98 -3.197,4.061 -5.175,6.191 v 0.05 c -0.254,0.203 -0.457,0.456 -0.711,0.711 -1.319,1.37 -2.689,2.791 -4.212,4.212 -1.928,1.776 -3.908,3.552 -5.786,5.43 -2.285,2.284 -4.415,4.719 -6.191,7.46 -3.654,5.734 -5.43,12.738 -2.639,22.38 -0.05,-0.05 -9.845,-13.195 -0.813,-32.327 0.05,-0.05 0.102,-0.202 0.102,-0.202 0,0 -0.102,0.102 -0.102,0.152 -2.993,3.806 -7.866,8.121 -11.57,9.693 4.212,-9.338 0.05,-17.864 -2.893,-22.684 -3.045,-4.973 -4.771,-10.81 -4.771,-17.053 0,-1.673 0.102,-3.299 0.354,-4.871 0.153,-1.167 0.407,-2.284 0.661,-3.399 0.558,-2.03 1.269,-3.959 2.132,-5.786 0.559,-1.168 1.168,-2.335 1.878,-3.452 0.152,-0.203 0.255,-0.407 0.406,-0.609 3.909,-5.887 9.643,-10.455 16.392,-12.84 2.487,-0.862 5.176,-1.471 7.916,-1.725 1.016,-0.103 2.031,-0.153 3.046,-0.153 1.776,0 3.501,0.153 5.175,0.407 -4.567,1.98 -8.525,5.075 -11.57,8.882 4.11,-2.841 9.084,-4.517 14.413,-4.517 6.191,0 11.875,2.232 16.29,5.937 0,0.051 0.05,0.103 0.102,0.153 -3.807,-2.182 -8.273,-3.35 -13.042,-3.148 -12.484,0.61 -22.482,10.81 -22.836,23.293 -0.102,2.639 0.304,5.228 1.014,7.662 l -0.304,0.204 -1.421,0.76 c -0.457,0.304 -0.457,0.965 0,1.217 l 3.501,2.284 6.699,4.315 c 0.457,0.304 1.118,-0.05 1.066,-0.66 l -0.609,-12.08 c 0,-0.558 -0.608,-0.862 -1.065,-0.608 l -1.726,1.016 c -0.457,-1.624 -0.711,-3.3 -0.711,-5.024 0,-10.403 8.425,-18.828 18.828,-18.828 8.425,0 15.529,5.48 17.915,13.094 0.202,0.608 1.168,3.299 1.422,7.205 C 5.177,-12.941 4.417,-6.497 0,0"
               style="fill:#fe5982;fill-opacity:1;fill-rule:nonzero;stroke:none"
               id="path158" /></g><g
             id="g160"
             transform="translate(49.2466,69.8264)"><path
               d="m 0,0 c 1.319,-1.726 2.791,-3.452 4.314,-5.175 2.335,-2.589 4.872,-5.126 7.258,-7.663 0.711,-0.71 1.37,-1.421 2.031,-2.132 0,-0.05 0.049,-0.05 0.049,-0.05 2.233,-2.437 4.315,-4.821 5.939,-7.206 1.928,-2.841 3.247,-5.684 3.501,-8.525 0,0 0.507,2.943 0.457,7.206 0,1.522 -0.102,3.197 -0.304,4.973 -0.051,0.661 -0.153,1.269 -0.255,1.928 -0.202,1.522 -0.506,3.045 -0.913,4.567 v 0.05 c -0.812,2.993 -1.98,6.039 -3.756,8.881 -0.812,1.37 -1.776,2.742 -2.943,4.009 -10.961,12.331 -19.03,15.326 -19.03,22.482 0,0 -3.856,-10.505 1.98,-20.706 C -1.167,1.726 -0.608,0.863 0,0"
               style="fill:#dbc2ff;fill-opacity:1;fill-rule:nonzero;stroke:none"
               id="path162" /></g></g></g></g></g></svg>
